<mxfile host="app.diagrams.net" agent="Mozilla/5.0 (Windows NT 10.0; Win64; x64) AppleWebKit/537.36 (KHTML, like Gecko) Chrome/133.0.0.0 Safari/537.36" version="26.0.16">
  <diagram name="Page-1" id="CVRvL5XX1X4Mtw7or7ae">
    <mxGraphModel dx="1195" dy="615" grid="1" gridSize="10" guides="1" tooltips="1" connect="1" arrows="1" fold="1" page="1" pageScale="1" pageWidth="850" pageHeight="1100" math="0" shadow="0">
      <root>
        <mxCell id="0" />
        <mxCell id="1" parent="0" />
        <mxCell id="lxG_5hcDOjIos_S2exNw-1" value="" style="whiteSpace=wrap;html=1;aspect=fixed;" vertex="1" parent="1">
          <mxGeometry x="120" y="40" width="920" height="920" as="geometry" />
        </mxCell>
        <mxCell id="lxG_5hcDOjIos_S2exNw-2" value="Client" style="shape=umlActor;verticalLabelPosition=bottom;verticalAlign=top;html=1;outlineConnect=0;" vertex="1" parent="1">
          <mxGeometry x="40" y="160" width="40" height="80" as="geometry" />
        </mxCell>
        <mxCell id="lxG_5hcDOjIos_S2exNw-3" value="&lt;span style=&quot;color: rgba(33, 37, 41, 0.75); font-family: system-ui, -apple-system, &amp;quot;Segoe UI&amp;quot;, Roboto, &amp;quot;Helvetica Neue&amp;quot;, &amp;quot;Noto Sans&amp;quot;, &amp;quot;Liberation Sans&amp;quot;, Arial, sans-serif, &amp;quot;Apple Color Emoji&amp;quot;, &amp;quot;Segoe UI Emoji&amp;quot;, &amp;quot;Segoe UI Symbol&amp;quot;, &amp;quot;Noto Color Emoji&amp;quot;; font-size: 16px; background-color: rgb(255, 255, 255);&quot;&gt;Reserve Ticket&lt;/span&gt;" style="ellipse;whiteSpace=wrap;html=1;" vertex="1" parent="1">
          <mxGeometry x="210" y="230" width="160" height="60" as="geometry" />
        </mxCell>
        <mxCell id="lxG_5hcDOjIos_S2exNw-4" value="&lt;span style=&quot;color: rgba(33, 37, 41, 0.75); font-family: system-ui, -apple-system, &amp;quot;Segoe UI&amp;quot;, Roboto, &amp;quot;Helvetica Neue&amp;quot;, &amp;quot;Noto Sans&amp;quot;, &amp;quot;Liberation Sans&amp;quot;, Arial, sans-serif, &amp;quot;Apple Color Emoji&amp;quot;, &amp;quot;Segoe UI Emoji&amp;quot;, &amp;quot;Segoe UI Symbol&amp;quot;, &amp;quot;Noto Color Emoji&amp;quot;; font-size: 16px; background-color: rgb(255, 255, 255);&quot;&gt;Search For Destination&amp;nbsp;&lt;/span&gt;" style="ellipse;whiteSpace=wrap;html=1;" vertex="1" parent="1">
          <mxGeometry x="210" y="120" width="160" height="60" as="geometry" />
        </mxCell>
        <mxCell id="lxG_5hcDOjIos_S2exNw-6" value="&lt;span style=&quot;color: rgba(33, 37, 41, 0.75); font-family: system-ui, -apple-system, &amp;quot;Segoe UI&amp;quot;, Roboto, &amp;quot;Helvetica Neue&amp;quot;, &amp;quot;Noto Sans&amp;quot;, &amp;quot;Liberation Sans&amp;quot;, Arial, sans-serif, &amp;quot;Apple Color Emoji&amp;quot;, &amp;quot;Segoe UI Emoji&amp;quot;, &amp;quot;Segoe UI Symbol&amp;quot;, &amp;quot;Noto Color Emoji&amp;quot;; font-size: 16px; background-color: rgb(255, 255, 255);&quot;&gt;Create Route&lt;br&gt;Destination&amp;nbsp;&lt;/span&gt;" style="ellipse;whiteSpace=wrap;html=1;" vertex="1" parent="1">
          <mxGeometry x="210" y="460" width="160" height="60" as="geometry" />
        </mxCell>
        <mxCell id="lxG_5hcDOjIos_S2exNw-7" value="&lt;span style=&quot;color: rgba(33, 37, 41, 0.75); font-family: system-ui, -apple-system, &amp;quot;Segoe UI&amp;quot;, Roboto, &amp;quot;Helvetica Neue&amp;quot;, &amp;quot;Noto Sans&amp;quot;, &amp;quot;Liberation Sans&amp;quot;, Arial, sans-serif, &amp;quot;Apple Color Emoji&amp;quot;, &amp;quot;Segoe UI Emoji&amp;quot;, &amp;quot;Segoe UI Symbol&amp;quot;, &amp;quot;Noto Color Emoji&amp;quot;; font-size: 16px; background-color: rgb(255, 255, 255);&quot;&gt;Edit Route&lt;br&gt;Destination&amp;nbsp;&lt;/span&gt;" style="ellipse;whiteSpace=wrap;html=1;" vertex="1" parent="1">
          <mxGeometry x="210" y="550" width="160" height="60" as="geometry" />
        </mxCell>
        <mxCell id="lxG_5hcDOjIos_S2exNw-8" value="&lt;span style=&quot;color: rgba(33, 37, 41, 0.75); font-family: system-ui, -apple-system, &amp;quot;Segoe UI&amp;quot;, Roboto, &amp;quot;Helvetica Neue&amp;quot;, &amp;quot;Noto Sans&amp;quot;, &amp;quot;Liberation Sans&amp;quot;, Arial, sans-serif, &amp;quot;Apple Color Emoji&amp;quot;, &amp;quot;Segoe UI Emoji&amp;quot;, &amp;quot;Segoe UI Symbol&amp;quot;, &amp;quot;Noto Color Emoji&amp;quot;; font-size: 16px; background-color: rgb(255, 255, 255);&quot;&gt;Delete Route&lt;br&gt;Destination&amp;nbsp;&lt;/span&gt;" style="ellipse;whiteSpace=wrap;html=1;" vertex="1" parent="1">
          <mxGeometry x="210" y="640" width="160" height="60" as="geometry" />
        </mxCell>
        <mxCell id="lxG_5hcDOjIos_S2exNw-9" value="Client" style="shape=umlActor;verticalLabelPosition=bottom;verticalAlign=top;html=1;outlineConnect=0;" vertex="1" parent="1">
          <mxGeometry x="40" y="540" width="40" height="80" as="geometry" />
        </mxCell>
      </root>
    </mxGraphModel>
  </diagram>
</mxfile>
